<svg xmlns="http://www.w3.org/2000/svg" viewBox="0 0 64 64" width="64" height="64"><path d="M32,43.6C32,43.6 12.64,29.96 12.64,18.08C12.64,12.45 16.95,8.4 21.97,8.4C26.37,8.4 29.98,11.04 32,14.56C34.02,11.04 37.63,8.4 42.03,8.4C47.05,8.4 51.36,12.45 51.36,18.08C51.36,29.96 32,43.6 32,43.6Z" fill="#ba1a24"/><path d="M32,66.83333333333334Q38.5,72.83333333333334 38.5,78.33333333333334A6.5,6.5 0 1,1 25.5,78.33333333333334Q25.5,72.83333333333334 32,66.83333333333334ZM32,43.75Q37.958333333333336,49.25 37.958333333333336,54.291666666666664A5.958333333333336,5.958333333333336 0 1,1 26.041666666666664,54.291666666666664Q26.041666666666664,49.25 32,43.75Z" fill="#aa2833"/></svg>