<svg xmlns="http://www.w3.org/2000/svg" viewBox="0 0 64 64" width="64" height="64"><mask id="m1"><rect width="64" height="64" fill="#fff"/><g transform="rotate(-7.407798811618922 23.15432914190873 29.074025148547634)"><ellipse cx="23.15" cy="29.07" rx="6.35" ry="7.02" fill="#000"/></g><g transform="rotate(7.407798811618922 38.77164570954364 35.29610059419054)"><ellipse cx="38.77" cy="35.30" rx="6.35" ry="7.02" fill="#000"/></g><path d="M26.814937128630916,45.07402514854763A3.111037722821452,3.111037722821452 0 1,0 33.03701257427382,45.07402514854763A3.111037722821452,3.111037722821452 0 1,0 26.814937128630916,45.07402514854763Z" fill="#000"/><path d="M35.36,42.59A14,14 0 0,1 28.64,42.59" fill="none" stroke="#000" stroke-width="3" stroke-linecap="round"/><path d="M32,37.14805029709527L33.23463313526982,39L30.76536686473018,39Z" fill="#000"/><path d="M50,26A8,8 0 1,0 66,26A8,8 0 1,0 50,26Z" fill="#000"/></mask><path d="M32,52C32,52 10,36.5 10,23C10,16.6 14.9,12 20.6,12C25.6,12 29.7,15 32,19C34.3,15 38.4,12 43.4,12C49.1,12 54,16.6 54,23C54,36.5 32,52 32,52Z" fill="#8ecb36" mask="url(#m1)"/><path d="M44,13A4,4 0 1,0 52,13A4,4 0 1,0 44,13ZM52.2,6A2.8,2.8 0 1,0 57.8,6A2.8,2.8 0 1,0 52.2,6Z" fill="#8ecb36"/></svg>