<svg xmlns="http://www.w3.org/2000/svg" viewBox="0 0 64 64" width="64" height="64"><path d="M32,52C32,52 10,36.5 10,23C10,16.6 14.9,12 20.6,12C25.6,12 29.7,15 32,19C34.3,15 38.4,12 43.4,12C49.1,12 54,16.6 54,23C54,36.5 32,52 32,52ZM32,48C32,48 14.4,35.6 14.4,24.8C14.4,19.68 18.32,16 22.88,16C26.88,16 30.16,18.4 32,21.6C33.84,18.4 37.12,16 41.12,16C45.68,16 49.6,19.68 49.6,24.8C49.6,35.6 32,48 32,48Z" fill-rule="evenodd" fill="#f1625a"/><path d="M32,46.5C32,46.5 16.05,35.26 16.05,25.48C16.05,20.84 19.6,17.5 23.73,17.5C27.36,17.5 30.33,19.68 32,22.58C33.67,19.68 36.64,17.5 40.27,17.5C44.4,17.5 47.95,20.84 47.95,25.48C47.95,35.26 32,46.5 32,46.5Z" fill="#f47b46"/></svg>