<svg xmlns="http://www.w3.org/2000/svg" viewBox="0 0 64 64" width="64" height="64"><path d="M32,52C32,52 10,36.5 10,23C10,16.6 14.9,12 20.6,12C25.6,12 29.7,15 32,19C34.3,15 38.4,12 43.4,12C49.1,12 54,16.6 54,23C54,36.5 32,52 32,52ZM32,48C32,48 14.4,35.6 14.4,24.8C14.4,19.68 18.32,16 22.88,16C26.88,16 30.16,18.4 32,21.6C33.84,18.4 37.12,16 41.12,16C45.68,16 49.6,19.68 49.6,24.8C49.6,35.6 32,48 32,48Z" fill-rule="evenodd" fill="#f1625a"/><path d="M32,43.17C32,43.17 19.72,34.51 19.72,26.98C19.72,23.4 22.45,20.83 25.64,20.83C28.43,20.83 30.72,22.51 32,24.74C33.28,22.51 35.57,20.83 38.37,20.83C41.55,20.83 44.28,23.4 44.28,26.98C44.28,34.51 32,43.17 32,43.17Z" fill="#de9935"/></svg>